<svg xmlns="http://www.w3.org/2000/svg" viewBox="0 0 1200 400" width="1200" height="400">
  <defs>
    <linearGradient id="bg" x1="0%" y1="0%" x2="100%" y2="100%">
      <stop offset="0%" style="stop-color:#0a0a0a"/>
      <stop offset="50%" style="stop-color:#111111"/>
      <stop offset="100%" style="stop-color:#0d0d0d"/>
    </linearGradient>
    <radialGradient id="glow1" cx="20%" cy="60%" r="35%">
      <stop offset="0%" style="stop-color:#E67E22;stop-opacity:0.15"/>
      <stop offset="100%" style="stop-color:#E67E22;stop-opacity:0"/>
    </radialGradient>
    <radialGradient id="glow2" cx="35%" cy="30%" r="25%">
      <stop offset="0%" style="stop-color:#E67E22;stop-opacity:0.1"/>
      <stop offset="100%" style="stop-color:#E67E22;stop-opacity:0"/>
    </radialGradient>
  </defs>
  <rect width="1200" height="400" fill="url(#bg)"/>
  <rect width="1200" height="400" fill="url(#glow1)"/>
  <rect width="1200" height="400" fill="url(#glow2)"/>
  <circle cx="450" cy="302" r="2.151379876307885" fill="white" opacity="0.5"/>
  <circle cx="85" cy="361" r="3.8772488995295733" fill="white" opacity="0.4"/>
  <circle cx="448" cy="336" r="3.8017623996072096" fill="white" opacity="0.9"/>
  <circle cx="306" cy="261" r="1.4789077043925811" fill="white" opacity="0.5"/>
  <circle cx="355" cy="363" r="2.98907214364481" fill="white" opacity="0.5"/>
  <circle cx="153" cy="215" r="1.3065976824208556" fill="white" opacity="0.7"/>
  <circle cx="560" cy="220" r="3.72618614489914" fill="white" opacity="0.6"/>
  <circle cx="333" cy="101" r="2.8725704039494717" fill="white" opacity="0.3"/>
  <circle cx="191" cy="37" r="3.576413957736134" fill="white" opacity="0.5"/>
  <circle cx="493" cy="290" r="3.6265616998859107" fill="white" opacity="0.8"/>
  <circle cx="179" cy="111" r="2.1490626055797657" fill="white" opacity="0.7"/>
  <circle cx="182" cy="329" r="1.7968989969945617" fill="white" opacity="0.8"/>
  <circle cx="531" cy="333" r="3.034751280159014" fill="white" opacity="0.2"/>
  <circle cx="540" cy="185" r="2.7056140582918697" fill="white" opacity="0.5"/>
  <circle cx="236" cy="68" r="1.2778908492201422" fill="white" opacity="0.3"/>
  <circle cx="129" cy="332" r="3.1026634788828704" fill="white" opacity="0.3"/>
  <circle cx="49" cy="337" r="3.6640594044747874" fill="white" opacity="0.4"/>
  <circle cx="465" cy="100" r="2.917522460435941" fill="white" opacity="0.5"/>
  <circle cx="166" cy="130" r="2.773912041897925" fill="white" opacity="0.4"/>
  <circle cx="43" cy="80" r="2.2523328034000105" fill="white" opacity="0.9"/>
  <circle cx="458" cy="129" r="2.796990319088877" fill="white" opacity="0.4"/>
  <circle cx="332" cy="264" r="1.1856709222403565" fill="white" opacity="0.7"/>
  <circle cx="123" cy="306" r="1.8621467405615755" fill="white" opacity="0.8"/>
  <circle cx="202" cy="113" r="3.5150309622039253" fill="white" opacity="0.4"/>
  <circle cx="257" cy="167" r="1.2178337631383216" fill="white" opacity="0.6"/>
  <circle cx="243" cy="203" r="3.7760777654770816" fill="white" opacity="0.8"/>
  <circle cx="380" cy="44" r="2.6578662585417616" fill="white" opacity="0.4"/>
  <circle cx="228" cy="99" r="3.4141876418755515" fill="white" opacity="0.8"/>
  <circle cx="556" cy="336" r="2.0287441922959113" fill="white" opacity="0.9"/>
  <circle cx="529" cy="256" r="1.0988828514021112" fill="white" opacity="0.3"/>
  <circle cx="199" cy="353" r="1.359705237200615" fill="white" opacity="0.6"/>
  <circle cx="283" cy="292" r="3.989900841412707" fill="white" opacity="0.5"/>
  <circle cx="313" cy="179" r="3.7261748976983817" fill="white" opacity="0.4"/>
  <circle cx="62" cy="141" r="3.04856653977829" fill="white" opacity="0.8"/>
  <circle cx="121" cy="296" r="2.957735161110633" fill="white" opacity="0.2"/>
  <circle cx="388" cy="296" r="1.3578745443372306" fill="white" opacity="0.4"/>
  <circle cx="486" cy="358" r="2.637357984724048" fill="white" opacity="0.6"/>
  <circle cx="445" cy="92" r="1.6381680903058093" fill="white" opacity="0.3"/>
  <circle cx="601" cy="185" r="2.135083298383415" fill="white" opacity="0.3"/>
  <circle cx="416" cy="273" r="3.899448937240766" fill="white" opacity="0.3"/>
  <circle cx="134" cy="200" r="1.3915721938428125" fill="white" opacity="0.4"/>
  <circle cx="57" cy="217" r="1.9419534553650626" fill="white" opacity="0.5"/>
  <circle cx="95" cy="223" r="3.5309808863118914" fill="white" opacity="0.2"/>
  <circle cx="162" cy="228" r="3.497394242662146" fill="white" opacity="0.8"/>
  <circle cx="493" cy="161" r="1.8766119465308537" fill="white" opacity="0.9"/>
  <circle cx="173" cy="131" r="3.226788362530815" fill="white" opacity="0.8"/>
  <circle cx="405" cy="333" r="3.4823803339036266" fill="white" opacity="0.7"/>
  <circle cx="169" cy="119" r="2.4571300310524378" fill="white" opacity="0.3"/>
  <circle cx="403" cy="136" r="1.4891116029969504" fill="white" opacity="0.7"/>
  <circle cx="95" cy="206" r="1.6485201743462028" fill="white" opacity="0.5"/>
  <circle cx="505" cy="313" r="3.5099082220095017" fill="white" opacity="0.3"/>
  <circle cx="442" cy="147" r="1.721940392853552" fill="white" opacity="0.8"/>
  <circle cx="201" cy="273" r="2.8419694560409505" fill="white" opacity="0.5"/>
  <circle cx="219" cy="114" r="3.8504526382324116" fill="white" opacity="0.2"/>
  <circle cx="537" cy="270" r="2.7626500554439177" fill="white" opacity="0.5"/>
  <circle cx="490" cy="245" r="2.2809490564679438" fill="white" opacity="0.4"/>
  <circle cx="156" cy="251" r="2.190462206742941" fill="white" opacity="0.4"/>
  <circle cx="411" cy="306" r="3.888209726767703" fill="white" opacity="0.3"/>
  <circle cx="436" cy="339" r="2.793757777448635" fill="white" opacity="0.4"/>
  <circle cx="232" cy="183" r="3.145852421802638" fill="white" opacity="0.6"/>
  <line x1="295" y1="368" x2="341" y2="294" stroke="white" stroke-width="0.5" opacity="0.15"/>
  <line x1="176" y1="268" x2="272" y2="218" stroke="white" stroke-width="0.5" opacity="0.15"/>
  <line x1="286" y1="365" x2="330" y2="300" stroke="white" stroke-width="0.5" opacity="0.15"/>
  <line x1="369" y1="196" x2="479" y2="185" stroke="white" stroke-width="0.5" opacity="0.15"/>
  <line x1="91" y1="228" x2="140" y2="166" stroke="white" stroke-width="0.5" opacity="0.15"/>
  <line x1="262" y1="357" x2="325" y2="432" stroke="white" stroke-width="0.5" opacity="0.15"/>
  <line x1="178" y1="337" x2="285" y2="380" stroke="white" stroke-width="0.5" opacity="0.15"/>
  <line x1="276" y1="332" x2="323" y2="326" stroke="white" stroke-width="0.5" opacity="0.15"/>
  <line x1="289" y1="127" x2="402" y2="130" stroke="white" stroke-width="0.5" opacity="0.15"/>
  <line x1="447" y1="96" x2="506" y2="66" stroke="white" stroke-width="0.5" opacity="0.15"/>
  <line x1="79" y1="39" x2="152" y2="78" stroke="white" stroke-width="0.5" opacity="0.15"/>
  <line x1="336" y1="219" x2="411" y2="288" stroke="white" stroke-width="0.5" opacity="0.15"/>
  <line x1="321" y1="73" x2="362" y2="84" stroke="white" stroke-width="0.5" opacity="0.15"/>
  <line x1="74" y1="368" x2="130" y2="362" stroke="white" stroke-width="0.5" opacity="0.15"/>
  <line x1="68" y1="155" x2="121" y2="102" stroke="white" stroke-width="0.5" opacity="0.15"/>

  <line x1="650" y1="60" x2="650" y2="340" stroke="white" stroke-width="0.5" opacity="0.15"/>
  <text x="680" y="155" font-family="'SF Pro Display','Helvetica Neue',Arial,sans-serif" font-size="88" font-weight="800" fill="white" letter-spacing="8">MULTI-AGENT CREW</text>
  <text x="680" y="200" font-family="'SF Pro Display','Helvetica Neue',Arial,sans-serif" font-size="18" font-weight="400" fill="white" opacity="0.85" letter-spacing="3">MULTI-AGENT CREW</text>
  <text x="680" y="230" font-family="'Noto Sans SC','PingFang SC','Microsoft YaHei',sans-serif" font-size="16" font-weight="300" fill="white" opacity="0.6" letter-spacing="2">Crew/Agent/Task 抽象 · 3 种协作模式 · 18 种内置工具 · LLM 驱动</text>
  <text x="680" y="280" font-family="'SF Mono','Fira Code','Consolas',monospace" font-size="13" fill="white" opacity="0.45" letter-spacing="1.5">FastAPI · Python · LLM</text>
  <line x1="680" y1="310" x2="1140" y2="310" stroke="white" stroke-width="0.5" opacity="0.15"/>
  <text x="680" y="340" font-family="'SF Mono','Fira Code','Consolas',monospace" font-size="11" fill="white" opacity="0.35" letter-spacing="1">MULTI-AGENT · CREWAI · ORCHESTRATION · AI</text>
</svg>