<svg xmlns="http://www.w3.org/2000/svg" viewBox="0 0 1200 400" width="1200" height="400">
  <defs>
    <linearGradient id="bg" x1="0%" y1="0%" x2="100%" y2="100%">
      <stop offset="0%" style="stop-color:#0a0a0a"/>
      <stop offset="50%" style="stop-color:#111111"/>
      <stop offset="100%" style="stop-color:#0d0d0d"/>
    </linearGradient>
    <radialGradient id="glow1" cx="16%" cy="55%" r="28%">
      <stop offset="0%" style="stop-color:#E67E22;stop-opacity:0.15"/>
      <stop offset="100%" style="stop-color:#E67E22;stop-opacity:0"/>
    </radialGradient>
    <radialGradient id="glow2" cx="28%" cy="30%" r="18%">
      <stop offset="0%" style="stop-color:#E67E22;stop-opacity:0.08"/>
      <stop offset="100%" style="stop-color:#E67E22;stop-opacity:0"/>
    </radialGradient>
  </defs>
  <rect width="1200" height="400" fill="url(#bg)"/>
  <rect width="1200" height="400" fill="url(#glow1)"/>
  <rect width="1200" height="400" fill="url(#glow2)"/>

  <circle cx="210" cy="79" r="2.8" fill="white" opacity="0.3"/>
  <circle cx="235" cy="89" r="2.3" fill="white" opacity="0.7"/>
  <circle cx="150" cy="312" r="1.6" fill="white" opacity="0.3"/>
  <circle cx="190" cy="336" r="1.9" fill="white" opacity="0.3"/>
  <circle cx="143" cy="66" r="2.3" fill="white" opacity="0.5"/>
  <circle cx="31" cy="105" r="1.9" fill="white" opacity="0.6"/>
  <circle cx="161" cy="130" r="2.0" fill="white" opacity="0.4"/>
  <circle cx="320" cy="212" r="2.7" fill="white" opacity="0.4"/>
  <circle cx="59" cy="300" r="1.7" fill="white" opacity="0.7"/>
  <circle cx="60" cy="321" r="3.0" fill="white" opacity="0.3"/>
  <circle cx="408" cy="97" r="1.5" fill="white" opacity="0.7"/>
  <circle cx="94" cy="150" r="1.6" fill="white" opacity="0.5"/>
  <circle cx="178" cy="169" r="2.9" fill="white" opacity="0.5"/>
  <circle cx="204" cy="138" r="1.6" fill="white" opacity="0.4"/>
  <circle cx="200" cy="248" r="2.9" fill="white" opacity="0.7"/>
  <circle cx="398" cy="120" r="2.9" fill="white" opacity="0.4"/>
  <circle cx="85" cy="33" r="2.9" fill="white" opacity="0.4"/>
  <circle cx="105" cy="339" r="3.5" fill="white" opacity="0.4"/>
  <circle cx="382" cy="356" r="3.4" fill="white" opacity="0.6"/>
  <circle cx="53" cy="215" r="2.3" fill="white" opacity="0.3"/>
  <circle cx="167" cy="289" r="2.2" fill="white" opacity="0.5"/>
  <circle cx="329" cy="375" r="3.3" fill="white" opacity="0.7"/>
  <circle cx="438" cy="333" r="1.7" fill="white" opacity="0.7"/>
  <circle cx="131" cy="292" r="3.3" fill="white" opacity="0.3"/>
  <circle cx="89" cy="97" r="1.8" fill="white" opacity="0.6"/>
  <circle cx="347" cy="225" r="3.2" fill="white" opacity="0.7"/>
  <circle cx="61" cy="202" r="2.7" fill="white" opacity="0.6"/>
  <circle cx="30" cy="87" r="2.7" fill="white" opacity="0.4"/>
  <circle cx="355" cy="51" r="3.2" fill="white" opacity="0.4"/>
  <circle cx="133" cy="319" r="2.6" fill="white" opacity="0.7"/>
  <circle cx="357" cy="66" r="3.4" fill="white" opacity="0.4"/>
  <circle cx="32" cy="363" r="2.4" fill="white" opacity="0.7"/>
  <circle cx="204" cy="62" r="3.1" fill="white" opacity="0.7"/>
  <circle cx="178" cy="331" r="2.7" fill="white" opacity="0.4"/>
  <circle cx="191" cy="106" r="3.5" fill="white" opacity="0.4"/>
  <circle cx="317" cy="122" r="1.7" fill="white" opacity="0.7"/>
  <circle cx="51" cy="227" r="1.8" fill="white" opacity="0.5"/>
  <circle cx="99" cy="270" r="1.9" fill="white" opacity="0.5"/>
  <circle cx="301" cy="68" r="3.4" fill="white" opacity="0.4"/>
  <circle cx="184" cy="25" r="2.6" fill="white" opacity="0.3"/>
  <circle cx="449" cy="355" r="3.1" fill="white" opacity="0.8"/>
  <circle cx="377" cy="278" r="2.6" fill="white" opacity="0.4"/>
  <circle cx="94" cy="327" r="3.3" fill="white" opacity="0.3"/>
  <circle cx="257" cy="371" r="2.6" fill="white" opacity="0.4"/>
  <circle cx="322" cy="179" r="2.8" fill="white" opacity="0.7"/>
  <circle cx="104" cy="38" r="1.7" fill="white" opacity="0.8"/>
  <circle cx="66" cy="245" r="1.9" fill="white" opacity="0.6"/>
  <circle cx="35" cy="173" r="2.9" fill="white" opacity="0.7"/>
  <circle cx="36" cy="108" r="1.5" fill="white" opacity="0.4"/>
  <circle cx="423" cy="329" r="3.2" fill="white" opacity="0.4"/>

  <line x1="429" y1="70" x2="485" y2="76" stroke="white" stroke-width="0.5" opacity="0.12"/>
  <line x1="199" y1="259" x2="266" y2="298" stroke="white" stroke-width="0.5" opacity="0.12"/>
  <line x1="288" y1="360" x2="329" y2="371" stroke="white" stroke-width="0.5" opacity="0.12"/>
  <line x1="309" y1="68" x2="370" y2="112" stroke="white" stroke-width="0.5" opacity="0.12"/>
  <line x1="313" y1="326" x2="378" y2="293" stroke="white" stroke-width="0.5" opacity="0.12"/>
  <line x1="155" y1="275" x2="202" y2="322" stroke="white" stroke-width="0.5" opacity="0.12"/>
  <line x1="268" y1="160" x2="316" y2="139" stroke="white" stroke-width="0.5" opacity="0.12"/>
  <line x1="358" y1="189" x2="410" y2="165" stroke="white" stroke-width="0.5" opacity="0.12"/>
  <line x1="106" y1="305" x2="146" y2="260" stroke="white" stroke-width="0.5" opacity="0.12"/>
  <line x1="300" y1="67" x2="343" y2="114" stroke="white" stroke-width="0.5" opacity="0.12"/>
  <line x1="383" y1="206" x2="423" y2="256" stroke="white" stroke-width="0.5" opacity="0.12"/>
  <line x1="148" y1="116" x2="202" y2="145" stroke="white" stroke-width="0.5" opacity="0.12"/>

  <!-- 分隔线 4:6 位置 -->
  <line x1="480" y1="50" x2="480" y2="350" stroke="white" stroke-width="0.5" opacity="0.12"/>

  <text x="510" y="120" font-family="'SF Pro Display','Helvetica Neue',Arial,sans-serif" font-size="56" font-weight="800" fill="white" letter-spacing="4">MULTI-AGENT CREW</text>
  <text x="510" y="185" font-family="'Noto Sans SC','PingFang SC','Microsoft YaHei',sans-serif" font-size="22" font-weight="500" fill="white" opacity="0.9" letter-spacing="3">多智能体协作系统</text>
  <text x="510" y="225" font-family="'Noto Sans SC','PingFang SC','Microsoft YaHei',sans-serif" font-size="14" font-weight="300" fill="white" opacity="0.5" letter-spacing="1.5">Crew/Agent/Task 抽象 · 3 种协作模式 · 18 种内置工具 · LLM 驱动</text>
  <text x="510" y="275" font-family="'SF Mono','Fira Code','Consolas',monospace" font-size="12" fill="white" opacity="0.4" letter-spacing="1.5">FastAPI · Python · LLM</text>
  <line x1="510" y1="315" x2="1170" y2="315" stroke="white" stroke-width="0.5" opacity="0.1"/>
  <text x="510" y="345" font-family="'SF Mono','Fira Code','Consolas',monospace" font-size="10" fill="white" opacity="0.3" letter-spacing="1">MULTI-AGENT · CREWAI · ORCHESTRATION · AI</text>
</svg>